<?xml version="1.0" encoding="UTF-8"?>
<svg xmlns="http://www.w3.org/2000/svg" xmlns:xlink="http://www.w3.org/1999/xlink" width="257px" height="418px" viewBox="0 0 257 418" version="1.1">
<g id="surface1">
<path style="fill:none;stroke-width:1;stroke-linecap:butt;stroke-linejoin:round;stroke:rgb(34.901962%,34.901962%,34.901962%);stroke-opacity:1;stroke-miterlimit:10;" d="M 19.388892 34.419631 L 17.780645 333.807546 " transform="matrix(1.168294,0,0,1.174271,0.262127,0)"/>
<path style="fill-rule:evenodd;fill:rgb(34.901962%,34.901962%,34.901962%);fill-opacity:1;stroke-width:1;stroke-linecap:butt;stroke-linejoin:miter;stroke:rgb(34.901962%,34.901962%,34.901962%);stroke-opacity:1;stroke-miterlimit:10;" d="M 16.135619 333.800893 L 17.760584 338.351589 L 19.439045 333.814199 Z M 16.135619 333.800893 " transform="matrix(1.168294,0,0,1.174271,0.262127,0)"/>
<path style="fill-rule:evenodd;fill:rgb(6.666667%,33.333334%,80.000001%);fill-opacity:1;stroke-width:2;stroke-linecap:butt;stroke-linejoin:round;stroke:rgb(6.666667%,33.333334%,80.000001%);stroke-opacity:1;stroke-miterlimit:10;" d="M 33.384989 35.324447 L 190.615387 35.324447 L 190.615387 64.960525 L 33.384989 64.960525 Z M 33.384989 35.324447 " transform="matrix(1.168294,0,0,1.174271,0.262127,0)"/>
<path style=" stroke:none;fill-rule:nonzero;fill:rgb(100%,100%,100%);fill-opacity:1;" d="M 78.933594 64.078125 L 78.933594 58.746094 L 77.972656 58.746094 L 77.972656 57.472656 L 78.933594 57.472656 L 78.933594 56.902344 C 78.933594 56.152344 79.152344 55.574219 79.578125 55.179688 C 80 54.773438 80.59375 54.570312 81.355469 54.570312 C 81.589844 54.570312 81.890625 54.609375 82.25 54.675781 L 82.222656 56.058594 C 82.078125 56.023438 81.902344 56 81.699219 56 C 81.039062 56 80.710938 56.308594 80.710938 56.933594 L 80.710938 57.472656 L 82.003906 57.472656 L 82.003906 58.746094 L 80.710938 58.746094 L 80.710938 64.078125 Z M 86.613281 59.117188 C 86.382812 59.082031 86.175781 59.066406 85.996094 59.066406 C 85.328125 59.066406 84.890625 59.292969 84.679688 59.742188 L 84.679688 64.078125 L 82.925781 64.078125 L 82.925781 57.472656 L 84.59375 57.472656 L 84.644531 58.261719 C 84.996094 57.648438 85.480469 57.339844 86.105469 57.339844 C 86.292969 57.339844 86.480469 57.367188 86.652344 57.414062 Z M 91.285156 64.078125 C 91.195312 63.910156 91.136719 63.722656 91.097656 63.488281 C 90.675781 63.964844 90.125 64.199219 89.441406 64.199219 C 88.792969 64.199219 88.253906 64.011719 87.828125 63.632812 C 87.417969 63.253906 87.214844 62.785156 87.214844 62.21875 C 87.214844 61.519531 87.464844 60.976562 87.976562 60.605469 C 88.503906 60.226562 89.25 60.035156 90.226562 60.035156 L 91.03125 60.035156 L 91.03125 59.648438 C 91.03125 59.347656 90.953125 59.105469 90.789062 58.917969 C 90.628906 58.734375 90.394531 58.644531 90.0625 58.644531 C 89.773438 58.644531 89.535156 58.722656 89.359375 58.859375 C 89.191406 59.007812 89.117188 59.207031 89.117188 59.453125 L 87.351562 59.453125 C 87.351562 59.074219 87.476562 58.722656 87.707031 58.382812 C 87.941406 58.050781 88.265625 57.800781 88.691406 57.617188 C 89.128906 57.433594 89.617188 57.339844 90.148438 57.339844 C 90.957031 57.339844 91.597656 57.550781 92.070312 57.957031 C 92.550781 58.367188 92.796875 58.941406 92.796875 59.6875 L 92.796875 62.554688 C 92.796875 63.171875 92.882812 63.640625 93.050781 63.964844 L 93.050781 64.078125 Z M 89.820312 62.839844 C 90.078125 62.839844 90.3125 62.789062 90.53125 62.683594 C 90.753906 62.558594 90.917969 62.398438 91.03125 62.203125 L 91.03125 61.066406 L 90.363281 61.066406 C 89.496094 61.066406 89.027344 61.367188 88.964844 61.988281 L 88.964844 62.09375 C 88.964844 62.3125 89.035156 62.503906 89.183594 62.644531 C 89.34375 62.78125 89.554688 62.839844 89.820312 62.839844 Z M 95.789062 57.472656 L 95.839844 58.207031 C 96.316406 57.628906 96.945312 57.339844 97.734375 57.339844 C 98.574219 57.339844 99.160156 57.671875 99.476562 58.351562 C 99.929688 57.671875 100.597656 57.339844 101.457031 57.339844 C 102.171875 57.339844 102.6875 57.550781 103.027344 57.957031 C 103.390625 58.378906 103.5625 59.007812 103.5625 59.851562 L 103.5625 64.078125 L 101.8125 64.078125 L 101.8125 59.851562 C 101.8125 59.484375 101.734375 59.214844 101.585938 59.046875 C 101.445312 58.859375 101.1875 58.773438 100.824219 58.773438 C 100.289062 58.773438 99.921875 59.027344 99.726562 59.546875 L 99.726562 64.078125 L 97.980469 64.078125 L 97.980469 59.871094 C 97.980469 59.476562 97.898438 59.199219 97.734375 59.027344 C 97.597656 58.855469 97.335938 58.773438 96.976562 58.773438 C 96.480469 58.773438 96.125 58.984375 95.894531 59.394531 L 95.894531 64.078125 L 94.144531 64.078125 L 94.144531 57.472656 Z M 107.949219 64.199219 C 106.988281 64.199219 106.203125 63.902344 105.597656 63.300781 C 104.984375 62.707031 104.683594 61.917969 104.683594 60.933594 L 104.683594 60.75 C 104.683594 60.089844 104.808594 59.5 105.070312 58.972656 C 105.320312 58.449219 105.683594 58.042969 106.144531 57.761719 C 106.621094 57.480469 107.152344 57.339844 107.75 57.339844 C 108.648438 57.339844 109.363281 57.628906 109.863281 58.207031 C 110.386719 58.769531 110.652344 59.570312 110.652344 60.628906 L 110.652344 61.34375 L 106.46875 61.34375 C 106.519531 61.769531 106.6875 62.113281 106.96875 62.382812 C 107.257812 62.644531 107.625 62.777344 108.066406 62.777344 C 108.742188 62.777344 109.269531 62.527344 109.648438 62.039062 L 110.5 63.007812 C 110.253906 63.378906 109.898438 63.671875 109.441406 63.894531 C 108.996094 64.097656 108.492188 64.199219 107.949219 64.199219 Z M 107.75 58.773438 C 107.402344 58.773438 107.105469 58.894531 106.894531 59.136719 C 106.6875 59.371094 106.550781 59.710938 106.484375 60.148438 L 108.914062 60.148438 L 108.914062 60 C 108.914062 59.613281 108.8125 59.304688 108.609375 59.105469 C 108.40625 58.882812 108.109375 58.773438 107.75 58.773438 Z M 115.226562 64.078125 L 115.226562 58.746094 L 114.257812 58.746094 L 114.257812 57.472656 L 115.226562 57.472656 L 115.226562 56.902344 C 115.226562 56.152344 115.441406 55.574219 115.867188 55.179688 C 116.289062 54.773438 116.882812 54.570312 117.632812 54.570312 C 117.882812 54.570312 118.179688 54.609375 118.523438 54.675781 L 118.511719 56.058594 C 118.363281 56.023438 118.1875 56 117.980469 56 C 117.328125 56 116.992188 56.308594 116.992188 56.933594 L 116.992188 57.472656 L 118.289062 57.472656 L 118.289062 58.746094 L 116.992188 58.746094 L 116.992188 64.078125 Z M 118.941406 60.714844 C 118.941406 60.058594 119.0625 59.46875 119.304688 58.953125 C 119.5625 58.445312 119.929688 58.042969 120.40625 57.761719 C 120.871094 57.480469 121.421875 57.339844 122.042969 57.339844 C 122.9375 57.339844 123.652344 57.617188 124.214844 58.167969 C 124.773438 58.707031 125.089844 59.449219 125.164062 60.378906 L 125.164062 60.84375 C 125.164062 61.84375 124.882812 62.660156 124.324219 63.28125 C 123.761719 63.898438 123.007812 64.199219 122.058594 64.199219 C 121.117188 64.199219 120.351562 63.898438 119.78125 63.28125 C 119.21875 62.667969 118.941406 61.839844 118.941406 60.792969 Z M 120.691406 60.84375 C 120.691406 61.472656 120.804688 61.945312 121.039062 62.273438 C 121.28125 62.609375 121.621094 62.777344 122.058594 62.777344 C 122.484375 62.777344 122.8125 62.609375 123.046875 62.273438 C 123.289062 61.945312 123.417969 61.429688 123.417969 60.714844 C 123.417969 60.089844 123.289062 59.621094 123.046875 59.289062 C 122.8125 58.941406 122.480469 58.773438 122.042969 58.773438 C 121.617188 58.773438 121.28125 58.941406 121.039062 59.289062 C 120.804688 59.621094 120.691406 60.136719 120.691406 60.84375 Z M 129.9375 59.117188 C 129.710938 59.082031 129.5 59.066406 129.316406 59.066406 C 128.648438 59.066406 128.210938 59.292969 128.007812 59.742188 L 128.007812 64.078125 L 126.25 64.078125 L 126.25 57.472656 L 127.914062 57.472656 L 127.96875 58.261719 C 128.324219 57.648438 128.8125 57.339844 129.433594 57.339844 C 129.621094 57.339844 129.804688 57.367188 129.976562 57.414062 Z M 134.953125 54.480469 L 135.792969 54.953125 C 135.433594 55.515625 135.253906 56.082031 135.246094 56.640625 L 135.246094 57.667969 L 133.855469 57.667969 L 133.855469 56.75 C 133.855469 56.371094 133.957031 55.972656 134.167969 55.550781 C 134.386719 55.101562 134.648438 54.742188 134.953125 54.480469 Z M 137.289062 54.480469 L 138.128906 54.953125 C 137.777344 55.515625 137.589844 56.082031 137.582031 56.640625 L 137.582031 57.667969 L 136.195312 57.667969 L 136.195312 56.75 C 136.195312 56.371094 136.300781 55.972656 136.496094 55.550781 C 136.71875 55.101562 136.980469 54.742188 137.289062 54.480469 Z M 139.417969 64.078125 L 139.417969 58.746094 L 138.449219 58.746094 L 138.449219 57.472656 L 139.417969 57.472656 L 139.417969 56.902344 C 139.417969 56.152344 139.636719 55.574219 140.058594 55.179688 C 140.488281 54.773438 141.070312 54.570312 141.828125 54.570312 C 142.070312 54.570312 142.375 54.609375 142.726562 54.675781 L 142.703125 56.058594 C 142.558594 56.023438 142.382812 56 142.175781 56 C 141.511719 56 141.195312 56.308594 141.195312 56.933594 L 141.195312 57.472656 L 142.492188 57.472656 L 142.492188 58.746094 L 141.195312 58.746094 L 141.195312 64.078125 Z M 145.269531 64.078125 L 143.5 64.078125 L 143.5 57.472656 L 145.269531 57.472656 Z M 143.386719 55.742188 C 143.386719 55.480469 143.46875 55.273438 143.648438 55.101562 C 143.828125 54.933594 144.074219 54.84375 144.375 54.84375 C 144.675781 54.84375 144.914062 54.933594 145.085938 55.101562 C 145.269531 55.273438 145.359375 55.480469 145.359375 55.742188 C 145.359375 56.015625 145.269531 56.234375 145.085938 56.40625 C 144.914062 56.578125 144.675781 56.664062 144.375 56.664062 C 144.082031 56.664062 143.839844 56.578125 143.660156 56.40625 C 143.480469 56.234375 143.386719 56.015625 143.386719 55.742188 Z M 148.332031 57.472656 L 148.386719 58.21875 C 148.847656 57.632812 149.476562 57.339844 150.265625 57.339844 C 150.964844 57.339844 151.476562 57.550781 151.816406 57.957031 C 152.160156 58.367188 152.335938 58.984375 152.347656 59.800781 L 152.347656 64.078125 L 150.59375 64.078125 L 150.59375 59.851562 C 150.59375 59.472656 150.515625 59.199219 150.339844 59.027344 C 150.183594 58.855469 149.914062 58.773438 149.535156 58.773438 C 149.050781 58.773438 148.679688 58.988281 148.421875 59.410156 L 148.421875 64.078125 L 146.671875 64.078125 L 146.671875 57.472656 Z M 157.496094 64.078125 C 157.40625 63.910156 157.347656 63.722656 157.3125 63.488281 C 156.886719 63.964844 156.332031 64.199219 155.652344 64.199219 C 155.003906 64.199219 154.472656 64.011719 154.039062 63.632812 C 153.636719 63.253906 153.425781 62.785156 153.425781 62.21875 C 153.425781 61.519531 153.675781 60.976562 154.191406 60.605469 C 154.714844 60.226562 155.460938 60.035156 156.4375 60.035156 L 157.234375 60.035156 L 157.234375 59.648438 C 157.234375 59.347656 157.164062 59.105469 157 58.917969 C 156.839844 58.734375 156.601562 58.644531 156.273438 58.644531 C 155.984375 58.644531 155.75 58.722656 155.570312 58.859375 C 155.402344 59.007812 155.324219 59.207031 155.324219 59.453125 L 153.5625 59.453125 C 153.5625 59.074219 153.6875 58.722656 153.917969 58.382812 C 154.152344 58.050781 154.476562 57.800781 154.902344 57.617188 C 155.339844 57.433594 155.828125 57.339844 156.363281 57.339844 C 157.171875 57.339844 157.804688 57.550781 158.28125 57.957031 C 158.765625 58.367188 159.007812 58.941406 159.007812 59.6875 L 159.007812 62.554688 C 159.007812 63.171875 159.097656 63.640625 159.269531 63.964844 L 159.269531 64.078125 Z M 156.035156 62.839844 C 156.289062 62.839844 156.53125 62.789062 156.746094 62.683594 C 156.960938 62.558594 157.128906 62.398438 157.234375 62.203125 L 157.234375 61.066406 L 156.574219 61.066406 C 155.707031 61.066406 155.230469 61.367188 155.175781 61.988281 L 155.175781 62.09375 C 155.175781 62.3125 155.253906 62.503906 155.394531 62.644531 C 155.554688 62.78125 155.765625 62.839844 156.035156 62.839844 Z M 162.214844 64.078125 L 160.449219 64.078125 L 160.449219 54.675781 L 162.214844 54.675781 Z M 165.519531 64.078125 L 163.742188 64.078125 L 163.742188 57.472656 L 165.519531 57.472656 Z M 163.636719 55.742188 C 163.636719 55.480469 163.726562 55.273438 163.894531 55.101562 C 164.074219 54.933594 164.320312 54.84375 164.628906 54.84375 C 164.921875 54.84375 165.164062 54.933594 165.332031 55.101562 C 165.519531 55.273438 165.605469 55.480469 165.605469 55.742188 C 165.605469 56.015625 165.519531 56.234375 165.332031 56.40625 C 165.164062 56.578125 164.921875 56.664062 164.628906 56.664062 C 164.328125 56.664062 164.097656 56.578125 163.910156 56.40625 C 163.730469 56.234375 163.636719 56.015625 163.636719 55.742188 Z M 168.980469 62.644531 L 172.191406 62.644531 L 172.191406 64.078125 L 166.742188 64.078125 L 166.742188 62.992188 L 169.820312 58.902344 L 166.828125 58.902344 L 166.828125 57.472656 L 172.085938 57.472656 L 172.085938 58.515625 Z M 176.320312 64.199219 C 175.359375 64.199219 174.578125 63.902344 173.964844 63.300781 C 173.355469 62.707031 173.054688 61.917969 173.054688 60.933594 L 173.054688 60.75 C 173.054688 60.089844 173.183594 59.5 173.433594 58.972656 C 173.6875 58.449219 174.054688 58.042969 174.515625 57.761719 C 174.992188 57.480469 175.523438 57.339844 176.117188 57.339844 C 177.019531 57.339844 177.730469 57.628906 178.234375 58.207031 C 178.753906 58.769531 179.019531 59.570312 179.019531 60.628906 L 179.019531 61.34375 L 174.839844 61.34375 C 174.890625 61.769531 175.058594 62.113281 175.335938 62.382812 C 175.628906 62.644531 175.996094 62.777344 176.429688 62.777344 C 177.113281 62.777344 177.640625 62.527344 178.015625 62.039062 L 178.875 63.007812 C 178.625 63.378906 178.265625 63.671875 177.816406 63.894531 C 177.367188 64.097656 176.867188 64.199219 176.320312 64.199219 Z M 176.117188 58.773438 C 175.773438 58.773438 175.476562 58.894531 175.257812 59.136719 C 175.058594 59.371094 174.921875 59.710938 174.859375 60.148438 L 177.289062 60.148438 L 177.289062 60 C 177.289062 59.613281 177.179688 59.304688 176.976562 59.105469 C 176.777344 58.882812 176.480469 58.773438 176.117188 58.773438 Z M 180.53125 57.914062 L 179.695312 57.433594 C 180.039062 56.882812 180.222656 56.308594 180.238281 55.730469 L 180.238281 54.675781 L 181.648438 54.675781 L 181.648438 55.636719 C 181.648438 56 181.542969 56.402344 181.332031 56.824219 C 181.128906 57.253906 180.859375 57.617188 180.53125 57.914062 Z M 182.867188 57.914062 L 182.027344 57.433594 C 182.378906 56.882812 182.5625 56.308594 182.574219 55.730469 L 182.574219 54.675781 L 183.984375 54.675781 L 183.984375 55.636719 C 183.984375 56 183.878906 56.402344 183.667969 56.824219 C 183.464844 57.253906 183.195312 57.617188 182.867188 57.914062 Z M 182.867188 57.914062 "/>
<path style="fill:none;stroke-width:1;stroke-linecap:butt;stroke-linejoin:round;stroke:rgb(21.960784%,46.27451%,11.372549%);stroke-opacity:1;stroke-dasharray:4,3;stroke-miterlimit:10;" d="M 33.384989 173.056195 L 190.615387 173.056195 L 190.615387 202.692272 L 33.384989 202.692272 Z M 33.384989 173.056195 " transform="matrix(1.168294,0,0,1.174271,0.262127,0)"/>
<path style=" stroke:none;fill-rule:nonzero;fill:rgb(71.764708%,71.764708%,71.764708%);fill-opacity:1;" d="M 127.574219 223.792969 C 127.574219 223.621094 127.621094 223.480469 127.722656 223.367188 C 127.832031 223.25 127.980469 223.183594 128.179688 223.183594 C 128.386719 223.183594 128.539062 223.25 128.636719 223.367188 C 128.746094 223.480469 128.796875 223.621094 128.796875 223.792969 C 128.796875 223.957031 128.746094 224.082031 128.636719 224.195312 C 128.539062 224.308594 128.386719 224.363281 128.179688 224.363281 C 127.980469 224.363281 127.832031 224.308594 127.722656 224.195312 C 127.621094 224.082031 127.574219 223.957031 127.574219 223.792969 Z M 130.449219 223.792969 C 130.449219 223.621094 130.496094 223.480469 130.585938 223.367188 C 130.699219 223.25 130.847656 223.183594 131.042969 223.183594 C 131.253906 223.183594 131.40625 223.25 131.503906 223.367188 C 131.613281 223.480469 131.667969 223.621094 131.667969 223.792969 C 131.667969 223.957031 131.613281 224.082031 131.503906 224.195312 C 131.40625 224.308594 131.253906 224.363281 131.042969 224.363281 C 130.847656 224.363281 130.699219 224.308594 130.585938 224.195312 C 130.496094 224.082031 130.449219 223.957031 130.449219 223.792969 Z M 133.3125 223.792969 C 133.3125 223.621094 133.359375 223.480469 133.460938 223.367188 C 133.566406 223.25 133.722656 223.183594 133.910156 223.183594 C 134.121094 223.183594 134.273438 223.25 134.367188 223.367188 C 134.476562 223.480469 134.53125 223.621094 134.53125 223.792969 C 134.53125 223.957031 134.476562 224.082031 134.367188 224.195312 C 134.273438 224.308594 134.121094 224.363281 133.910156 224.363281 C 133.722656 224.363281 133.566406 224.308594 133.460938 224.195312 C 133.359375 224.082031 133.3125 223.957031 133.3125 223.792969 Z M 133.3125 223.792969 "/>
<path style="fill-rule:evenodd;fill:rgb(21.960784%,46.27451%,11.372549%);fill-opacity:1;stroke-width:2;stroke-linecap:butt;stroke-linejoin:round;stroke:rgb(21.960784%,46.27451%,11.372549%);stroke-opacity:1;stroke-miterlimit:10;" d="M 33.384989 143.416791 L 190.615387 143.416791 L 190.615387 173.056195 L 33.384989 173.056195 Z M 33.384989 143.416791 " transform="matrix(1.168294,0,0,1.174271,0.262127,0)"/>
<path style=" stroke:none;fill-rule:nonzero;fill:rgb(100%,100%,100%);fill-opacity:1;" d="M 78.996094 191 L 78.996094 185.683594 L 78.03125 185.683594 L 78.03125 184.402344 L 78.996094 184.402344 L 78.996094 183.828125 C 78.996094 183.089844 79.210938 182.515625 79.640625 182.101562 C 80.066406 181.707031 80.652344 181.503906 81.410156 181.503906 C 81.652344 181.503906 81.945312 181.539062 82.308594 181.617188 L 82.28125 182.988281 C 82.140625 182.949219 81.96875 182.929688 81.753906 182.929688 C 81.097656 182.929688 80.773438 183.25 80.773438 183.871094 L 80.773438 184.402344 L 82.070312 184.402344 L 82.070312 185.683594 L 80.773438 185.683594 L 80.773438 191 Z M 86.675781 186.050781 C 86.441406 186.015625 86.238281 185.996094 86.058594 185.996094 C 85.382812 185.996094 84.949219 186.230469 84.738281 186.683594 L 84.738281 191 L 82.988281 191 L 82.988281 184.402344 L 84.648438 184.402344 L 84.707031 185.191406 C 85.058594 184.574219 85.542969 184.277344 86.164062 184.277344 C 86.351562 184.277344 86.542969 184.292969 86.714844 184.347656 Z M 91.347656 191 C 91.257812 190.851562 91.195312 190.652344 91.164062 190.421875 C 90.734375 190.894531 90.179688 191.136719 89.503906 191.136719 C 88.859375 191.136719 88.328125 190.945312 87.894531 190.566406 C 87.484375 190.1875 87.277344 189.714844 87.277344 189.15625 C 87.277344 188.445312 87.527344 187.902344 88.042969 187.542969 C 88.5625 187.160156 89.308594 186.972656 90.289062 186.972656 L 91.085938 186.972656 L 91.085938 186.585938 C 91.085938 186.277344 91.007812 186.035156 90.847656 185.847656 C 90.691406 185.667969 90.449219 185.574219 90.125 185.574219 C 89.828125 185.574219 89.597656 185.644531 89.425781 185.796875 C 89.253906 185.9375 89.171875 186.140625 89.171875 186.382812 L 87.417969 186.382812 C 87.417969 186.003906 87.53125 185.644531 87.769531 185.316406 C 87.996094 184.988281 88.332031 184.730469 88.753906 184.550781 C 89.1875 184.363281 89.679688 184.277344 90.214844 184.277344 C 91.015625 184.277344 91.652344 184.472656 92.132812 184.894531 C 92.617188 185.296875 92.855469 185.875 92.855469 186.621094 L 92.855469 189.484375 C 92.855469 190.101562 92.945312 190.578125 93.113281 190.894531 L 93.113281 191 Z M 89.882812 189.78125 C 90.140625 189.78125 90.367188 189.722656 90.597656 189.613281 C 90.816406 189.496094 90.976562 189.332031 91.085938 189.136719 L 91.085938 187.996094 L 90.429688 187.996094 C 89.554688 187.996094 89.082031 188.300781 89.027344 188.910156 L 89.027344 189.023438 C 89.027344 189.246094 89.097656 189.421875 89.246094 189.578125 C 89.402344 189.707031 89.617188 189.78125 89.882812 189.78125 Z M 95.84375 184.402344 L 95.902344 185.136719 C 96.375 184.558594 97.003906 184.277344 97.804688 184.277344 C 98.640625 184.277344 99.214844 184.609375 99.535156 185.285156 C 100 184.609375 100.660156 184.277344 101.523438 184.277344 C 102.226562 184.277344 102.75 184.472656 103.089844 184.894531 C 103.449219 185.308594 103.625 185.9375 103.625 186.785156 L 103.625 191 L 101.867188 191 L 101.867188 186.785156 C 101.867188 186.417969 101.796875 186.148438 101.652344 185.980469 C 101.5 185.796875 101.25 185.707031 100.882812 185.707031 C 100.347656 185.707031 99.988281 185.964844 99.789062 186.472656 L 99.789062 191 L 98.035156 191 L 98.035156 186.808594 C 98.035156 186.414062 97.957031 186.136719 97.804688 185.964844 C 97.652344 185.789062 97.390625 185.707031 97.03125 185.707031 C 96.546875 185.707031 96.1875 185.914062 95.957031 186.328125 L 95.957031 191 L 94.203125 191 L 94.203125 184.402344 Z M 108.011719 191.136719 C 107.050781 191.136719 106.265625 190.832031 105.65625 190.238281 C 105.054688 189.632812 104.742188 188.847656 104.742188 187.871094 L 104.742188 187.683594 C 104.742188 187.027344 104.875 186.433594 105.128906 185.910156 C 105.375 185.375 105.742188 184.976562 106.203125 184.695312 C 106.679688 184.414062 107.210938 184.277344 107.808594 184.277344 C 108.710938 184.277344 109.421875 184.558594 109.933594 185.136719 C 110.445312 185.703125 110.710938 186.511719 110.710938 187.554688 L 110.710938 188.273438 L 106.53125 188.273438 C 106.578125 188.703125 106.746094 189.050781 107.027344 189.316406 C 107.316406 189.578125 107.683594 189.703125 108.121094 189.703125 C 108.804688 189.703125 109.332031 189.457031 109.707031 188.972656 L 110.566406 189.949219 C 110.3125 190.308594 109.957031 190.605469 109.515625 190.820312 C 109.058594 191.035156 108.558594 191.136719 108.011719 191.136719 Z M 107.808594 185.707031 C 107.460938 185.707031 107.171875 185.824219 106.949219 186.074219 C 106.746094 186.300781 106.617188 186.640625 106.550781 187.082031 L 108.984375 187.082031 L 108.984375 186.929688 C 108.984375 186.542969 108.882812 186.242188 108.667969 186.035156 C 108.464844 185.8125 108.175781 185.707031 107.808594 185.707031 Z M 115.285156 191 L 115.285156 185.683594 L 114.320312 185.683594 L 114.320312 184.402344 L 115.285156 184.402344 L 115.285156 183.828125 C 115.285156 183.089844 115.5 182.515625 115.921875 182.101562 C 116.351562 181.707031 116.9375 181.503906 117.699219 181.503906 C 117.9375 181.503906 118.238281 181.539062 118.589844 181.617188 L 118.566406 182.988281 C 118.421875 182.949219 118.25 182.929688 118.042969 182.929688 C 117.386719 182.929688 117.058594 183.25 117.058594 183.871094 L 117.058594 184.402344 L 118.355469 184.402344 L 118.355469 185.683594 L 117.058594 185.683594 L 117.058594 191 Z M 118.996094 187.648438 C 118.996094 186.988281 119.125 186.40625 119.363281 185.890625 C 119.621094 185.367188 119.984375 184.976562 120.460938 184.695312 C 120.9375 184.414062 121.480469 184.277344 122.097656 184.277344 C 122.992188 184.277344 123.710938 184.550781 124.273438 185.097656 C 124.832031 185.632812 125.152344 186.371094 125.222656 187.316406 L 125.222656 187.777344 C 125.222656 188.785156 124.949219 189.59375 124.382812 190.214844 C 123.820312 190.824219 123.070312 191.136719 122.125 191.136719 C 121.171875 191.136719 120.414062 190.824219 119.84375 190.214844 C 119.277344 189.609375 118.996094 188.777344 118.996094 187.722656 Z M 120.75 187.777344 C 120.75 188.402344 120.867188 188.882812 121.09375 189.203125 C 121.34375 189.535156 121.683594 189.703125 122.125 189.703125 C 122.539062 189.703125 122.875 189.535156 123.101562 189.203125 C 123.351562 188.882812 123.472656 188.355469 123.472656 187.648438 C 123.472656 187.027344 123.351562 186.550781 123.101562 186.214844 C 122.875 185.875 122.535156 185.707031 122.097656 185.707031 C 121.679688 185.707031 121.34375 185.875 121.09375 186.214844 C 120.867188 186.550781 120.75 187.070312 120.75 187.777344 Z M 129.996094 186.050781 C 129.769531 186.015625 129.558594 185.996094 129.378906 185.996094 C 128.710938 185.996094 128.273438 186.230469 128.066406 186.683594 L 128.066406 191 L 126.3125 191 L 126.3125 184.402344 L 127.976562 184.402344 L 128.027344 185.191406 C 128.382812 184.574219 128.875 184.277344 129.492188 184.277344 C 129.679688 184.277344 129.859375 184.292969 130.035156 184.347656 Z M 135.011719 181.410156 L 135.851562 181.886719 C 135.492188 182.449219 135.316406 183.011719 135.304688 183.570312 L 135.304688 184.605469 L 133.917969 184.605469 L 133.917969 183.683594 C 133.917969 183.304688 134.027344 182.910156 134.226562 182.472656 C 134.453125 182.03125 134.703125 181.675781 135.011719 181.410156 Z M 137.347656 181.410156 L 138.191406 181.886719 C 137.835938 182.449219 137.652344 183.011719 137.640625 183.570312 L 137.640625 184.605469 L 136.253906 184.605469 L 136.253906 183.683594 C 136.253906 183.304688 136.355469 182.910156 136.570312 182.472656 C 136.78125 182.03125 137.046875 181.675781 137.347656 181.410156 Z M 144.917969 187.761719 C 144.917969 188.777344 144.6875 189.59375 144.226562 190.214844 C 143.777344 190.824219 143.15625 191.136719 142.367188 191.136719 C 141.707031 191.136719 141.167969 190.902344 140.757812 190.4375 L 140.757812 193.558594 L 139.007812 193.558594 L 139.007812 184.402344 L 140.636719 184.402344 L 140.703125 185.050781 C 141.125 184.523438 141.679688 184.277344 142.367188 184.277344 C 143.167969 184.277344 143.789062 184.574219 144.242188 185.191406 C 144.691406 185.789062 144.917969 186.613281 144.917969 187.667969 Z M 143.167969 187.628906 C 143.167969 187.019531 143.050781 186.550781 142.835938 186.214844 C 142.613281 185.875 142.304688 185.707031 141.886719 185.707031 C 141.339844 185.707031 140.964844 185.917969 140.757812 186.347656 L 140.757812 189.046875 C 140.976562 189.484375 141.363281 189.703125 141.90625 189.703125 C 142.746094 189.703125 143.167969 189.007812 143.167969 187.628906 Z M 149.960938 190.324219 C 149.523438 190.867188 148.914062 191.136719 148.148438 191.136719 C 147.445312 191.136719 146.902344 190.9375 146.523438 190.527344 C 146.160156 190.109375 145.976562 189.511719 145.976562 188.726562 L 145.976562 184.402344 L 147.730469 184.402344 L 147.730469 188.660156 C 147.730469 189.355469 148.042969 189.703125 148.667969 189.703125 C 149.257812 189.703125 149.671875 189.5 149.882812 189.078125 L 149.882812 184.402344 L 151.648438 184.402344 L 151.648438 191 L 149.992188 191 Z M 158.914062 187.761719 C 158.914062 188.824219 158.679688 189.652344 158.238281 190.253906 C 157.789062 190.847656 157.152344 191.136719 156.339844 191.136719 C 155.640625 191.136719 155.070312 190.863281 154.644531 190.308594 L 154.5625 191 L 152.980469 191 L 152.980469 181.617188 L 154.730469 181.617188 L 154.730469 184.988281 C 155.144531 184.511719 155.675781 184.277344 156.339844 184.277344 C 157.140625 184.277344 157.769531 184.566406 158.21875 185.175781 C 158.675781 185.757812 158.914062 186.597656 158.914062 187.667969 Z M 157.140625 187.628906 C 157.140625 186.972656 157.039062 186.484375 156.832031 186.183594 C 156.621094 185.867188 156.308594 185.707031 155.882812 185.707031 C 155.335938 185.707031 154.949219 185.933594 154.730469 186.40625 L 154.730469 189.003906 C 154.949219 189.464844 155.339844 189.703125 155.902344 189.703125 C 156.472656 189.703125 156.839844 189.417969 157.011719 188.859375 C 157.097656 188.597656 157.140625 188.183594 157.140625 187.628906 Z M 161.851562 191 L 160.085938 191 L 160.085938 181.617188 L 161.851562 181.617188 Z M 165.15625 191 L 163.378906 191 L 163.378906 184.402344 L 165.15625 184.402344 Z M 163.269531 182.671875 C 163.269531 182.417969 163.359375 182.203125 163.53125 182.03125 C 163.707031 181.859375 163.957031 181.769531 164.257812 181.769531 C 164.5625 181.769531 164.800781 181.859375 164.972656 182.03125 C 165.15625 182.203125 165.246094 182.417969 165.246094 182.671875 C 165.246094 182.941406 165.15625 183.167969 164.972656 183.339844 C 164.800781 183.511719 164.5625 183.601562 164.257812 183.601562 C 163.96875 183.601562 163.730469 183.511719 163.542969 183.339844 C 163.363281 183.167969 163.269531 182.941406 163.269531 182.671875 Z M 170.148438 189.175781 C 170.148438 188.96875 170.042969 188.796875 169.820312 188.675781 C 169.613281 188.546875 169.277344 188.425781 168.816406 188.332031 C 167.25 188.003906 166.46875 187.34375 166.46875 186.328125 C 166.46875 185.738281 166.703125 185.25 167.191406 184.859375 C 167.6875 184.464844 168.316406 184.277344 169.089844 184.277344 C 169.925781 184.277344 170.585938 184.46875 171.082031 184.882812 C 171.597656 185.273438 171.847656 185.78125 171.847656 186.40625 L 170.078125 186.40625 C 170.078125 186.152344 169.996094 185.960938 169.839844 185.796875 C 169.675781 185.625 169.429688 185.539062 169.074219 185.539062 C 168.78125 185.539062 168.558594 185.613281 168.398438 185.738281 C 168.238281 185.875 168.164062 186.046875 168.164062 186.253906 C 168.164062 186.449219 168.253906 186.609375 168.433594 186.730469 C 168.613281 186.835938 168.929688 186.945312 169.363281 187.042969 C 169.804688 187.132812 170.171875 187.226562 170.457031 187.339844 C 171.398438 187.679688 171.871094 188.269531 171.871094 189.097656 C 171.871094 189.707031 171.609375 190.199219 171.082031 190.582031 C 170.570312 190.949219 169.90625 191.136719 169.089844 191.136719 C 168.542969 191.136719 168.054688 191.039062 167.636719 190.847656 C 167.210938 190.628906 166.871094 190.355469 166.632812 190.015625 C 166.382812 189.675781 166.261719 189.304688 166.261719 188.894531 L 167.925781 188.894531 C 167.933594 189.21875 168.050781 189.457031 168.269531 189.628906 C 168.492188 189.789062 168.773438 189.871094 169.128906 189.871094 C 169.472656 189.871094 169.71875 189.808594 169.890625 189.683594 C 170.0625 189.550781 170.148438 189.371094 170.148438 189.175781 Z M 174.714844 185.117188 C 175.167969 184.554688 175.753906 184.277344 176.460938 184.277344 C 177.882812 184.277344 178.605469 185.105469 178.636719 186.769531 L 178.636719 191 L 176.878906 191 L 176.878906 186.824219 C 176.878906 186.441406 176.792969 186.15625 176.628906 185.980469 C 176.464844 185.796875 176.199219 185.707031 175.820312 185.707031 C 175.308594 185.707031 174.945312 185.910156 174.714844 186.308594 L 174.714844 191 L 172.953125 191 L 172.953125 181.617188 L 174.714844 181.617188 Z M 180.472656 184.839844 L 179.636719 184.363281 C 179.980469 183.816406 180.167969 183.25 180.179688 182.65625 L 180.179688 181.617188 L 181.582031 181.617188 L 181.582031 182.566406 C 181.582031 182.929688 181.480469 183.335938 181.273438 183.761719 C 181.070312 184.183594 180.800781 184.550781 180.472656 184.839844 Z M 182.808594 184.839844 L 181.972656 184.363281 C 182.320312 183.816406 182.5 183.25 182.519531 182.65625 L 182.519531 181.617188 L 183.921875 181.617188 L 183.921875 182.566406 C 183.921875 182.929688 183.816406 183.335938 183.613281 183.761719 C 183.398438 184.183594 183.136719 184.550781 182.808594 184.839844 Z M 182.808594 184.839844 "/>
<path style="fill:none;stroke-width:1;stroke-linecap:butt;stroke-linejoin:round;stroke:rgb(60.000002%,0%,0%);stroke-opacity:1;stroke-dasharray:4,3;stroke-miterlimit:10;" d="M 33.384989 276.850658 L 190.615387 276.850658 L 190.615387 306.486735 L 33.384989 306.486735 Z M 33.384989 276.850658 " transform="matrix(1.168294,0,0,1.174271,0.262127,0)"/>
<path style=" stroke:none;fill-rule:nonzero;fill:rgb(71.764708%,71.764708%,71.764708%);fill-opacity:1;" d="M 127.574219 345.671875 C 127.574219 345.496094 127.621094 345.363281 127.722656 345.25 C 127.832031 345.125 127.980469 345.066406 128.179688 345.066406 C 128.386719 345.066406 128.539062 345.125 128.636719 345.25 C 128.746094 345.363281 128.796875 345.496094 128.796875 345.671875 C 128.796875 345.828125 128.746094 345.964844 128.636719 346.078125 C 128.539062 346.191406 128.386719 346.234375 128.179688 346.234375 C 127.980469 346.234375 127.832031 346.191406 127.722656 346.078125 C 127.621094 345.964844 127.574219 345.828125 127.574219 345.671875 Z M 130.449219 345.671875 C 130.449219 345.496094 130.496094 345.363281 130.585938 345.25 C 130.699219 345.125 130.847656 345.066406 131.042969 345.066406 C 131.253906 345.066406 131.40625 345.125 131.503906 345.25 C 131.613281 345.363281 131.667969 345.496094 131.667969 345.671875 C 131.667969 345.828125 131.613281 345.964844 131.503906 346.078125 C 131.40625 346.191406 131.253906 346.234375 131.042969 346.234375 C 130.847656 346.234375 130.699219 346.191406 130.585938 346.078125 C 130.496094 345.964844 130.449219 345.828125 130.449219 345.671875 Z M 133.3125 345.671875 C 133.3125 345.496094 133.359375 345.363281 133.460938 345.25 C 133.566406 345.125 133.722656 345.066406 133.910156 345.066406 C 134.121094 345.066406 134.273438 345.125 134.367188 345.25 C 134.476562 345.363281 134.53125 345.496094 134.53125 345.671875 C 134.53125 345.828125 134.476562 345.964844 134.367188 346.078125 C 134.273438 346.191406 134.121094 346.234375 133.910156 346.234375 C 133.722656 346.234375 133.566406 346.191406 133.460938 346.078125 C 133.359375 345.964844 133.3125 345.828125 133.3125 345.671875 Z M 133.3125 345.671875 "/>
<path style="fill-rule:evenodd;fill:rgb(60.000002%,0%,0%);fill-opacity:1;stroke-width:2;stroke-linecap:butt;stroke-linejoin:round;stroke:rgb(60.000002%,0%,0%);stroke-opacity:1;stroke-miterlimit:10;" d="M 33.384989 247.207928 L 190.615387 247.207928 L 190.615387 276.850658 L 33.384989 276.850658 Z M 33.384989 247.207928 " transform="matrix(1.168294,0,0,1.174271,0.262127,0)"/>
<path style=" stroke:none;fill-rule:nonzero;fill:rgb(100%,100%,100%);fill-opacity:1;" d="M 57.707031 312.886719 L 57.707031 307.566406 L 56.742188 307.566406 L 56.742188 306.28125 L 57.707031 306.28125 L 57.707031 305.710938 C 57.707031 304.960938 57.925781 304.390625 58.34375 303.980469 C 58.769531 303.582031 59.359375 303.378906 60.121094 303.378906 C 60.359375 303.378906 60.664062 303.417969 61.015625 303.488281 L 60.992188 304.867188 C 60.851562 304.828125 60.671875 304.8125 60.464844 304.8125 C 59.804688 304.8125 59.484375 305.121094 59.484375 305.75 L 59.484375 306.28125 L 60.773438 306.28125 L 60.773438 307.566406 L 59.484375 307.566406 L 59.484375 312.886719 Z M 65.382812 307.929688 C 65.152344 307.886719 64.941406 307.871094 64.765625 307.871094 C 64.09375 307.871094 63.65625 308.101562 63.453125 308.554688 L 63.453125 312.886719 L 61.699219 312.886719 L 61.699219 306.28125 L 63.359375 306.28125 L 63.410156 307.066406 C 63.765625 306.457031 64.25 306.144531 64.871094 306.144531 C 65.066406 306.144531 65.25 306.175781 65.417969 306.226562 Z M 70.050781 312.886719 C 69.960938 312.722656 69.90625 312.535156 69.871094 312.296875 C 69.445312 312.769531 68.890625 313.015625 68.210938 313.015625 C 67.5625 313.015625 67.03125 312.820312 66.597656 312.441406 C 66.195312 312.058594 65.984375 311.59375 65.984375 311.027344 C 65.984375 310.324219 66.242188 309.777344 66.746094 309.410156 C 67.269531 309.035156 68.019531 308.847656 68.996094 308.847656 L 69.792969 308.847656 L 69.792969 308.464844 C 69.792969 308.15625 69.71875 307.914062 69.558594 307.734375 C 69.398438 307.542969 69.15625 307.453125 68.832031 307.453125 C 68.539062 307.453125 68.308594 307.527344 68.136719 307.671875 C 67.964844 307.820312 67.878906 308.019531 67.878906 308.257812 L 66.128906 308.257812 C 66.128906 307.875 66.246094 307.527344 66.476562 307.195312 C 66.707031 306.867188 67.035156 306.609375 67.464844 306.421875 C 67.898438 306.238281 68.382812 306.144531 68.921875 306.144531 C 69.730469 306.144531 70.367188 306.355469 70.839844 306.777344 C 71.324219 307.183594 71.566406 307.753906 71.566406 308.5 L 71.566406 311.359375 C 71.566406 311.988281 71.65625 312.457031 71.820312 312.769531 L 71.820312 312.886719 Z M 68.589844 311.652344 C 68.84375 311.652344 69.089844 311.597656 69.308594 311.488281 C 69.523438 311.367188 69.6875 311.207031 69.792969 311.015625 L 69.792969 309.875 L 69.140625 309.875 C 68.265625 309.875 67.796875 310.183594 67.734375 310.792969 L 67.734375 310.90625 C 67.734375 311.125 67.804688 311.304688 67.949219 311.453125 C 68.109375 311.589844 68.320312 311.652344 68.589844 311.652344 Z M 74.558594 306.28125 L 74.609375 307.015625 C 75.082031 306.441406 75.71875 306.144531 76.507812 306.144531 C 77.347656 306.144531 77.925781 306.488281 78.246094 307.15625 C 78.703125 306.488281 79.363281 306.144531 80.234375 306.144531 C 80.9375 306.144531 81.460938 306.355469 81.800781 306.777344 C 82.15625 307.191406 82.328125 307.820312 82.328125 308.660156 L 82.328125 312.886719 L 80.582031 312.886719 L 80.582031 308.660156 C 80.582031 308.300781 80.503906 308.03125 80.359375 307.859375 C 80.214844 307.671875 79.960938 307.582031 79.589844 307.582031 C 79.058594 307.582031 78.691406 307.835938 78.496094 308.351562 L 78.496094 312.886719 L 76.746094 312.886719 L 76.746094 308.679688 C 76.746094 308.292969 76.671875 308.011719 76.507812 307.835938 C 76.355469 307.664062 76.109375 307.582031 75.742188 307.582031 C 75.25 307.582031 74.894531 307.792969 74.667969 308.203125 L 74.667969 312.886719 L 72.910156 312.886719 L 72.910156 306.28125 Z M 86.71875 313.015625 C 85.761719 313.015625 84.976562 312.714844 84.371094 312.113281 C 83.757812 311.511719 83.453125 310.730469 83.453125 309.75 L 83.453125 309.5625 C 83.453125 308.902344 83.582031 308.308594 83.839844 307.777344 C 84.097656 307.253906 84.445312 306.855469 84.914062 306.570312 C 85.386719 306.289062 85.925781 306.144531 86.515625 306.144531 C 87.417969 306.144531 88.125 306.441406 88.632812 307.015625 C 89.160156 307.578125 89.417969 308.382812 89.417969 309.433594 L 89.417969 310.144531 L 85.238281 310.144531 C 85.289062 310.578125 85.449219 310.925781 85.734375 311.195312 C 86.023438 311.453125 86.390625 311.582031 86.828125 311.582031 C 87.511719 311.582031 88.042969 311.339844 88.414062 310.847656 L 89.277344 311.820312 C 89.023438 312.191406 88.667969 312.480469 88.21875 312.699219 C 87.769531 312.910156 87.269531 313.015625 86.71875 313.015625 Z M 86.515625 307.582031 C 86.164062 307.582031 85.875 307.703125 85.664062 307.949219 C 85.449219 308.183594 85.324219 308.511719 85.261719 308.957031 L 87.6875 308.957031 L 87.6875 308.816406 C 87.6875 308.421875 87.585938 308.121094 87.382812 307.914062 C 87.167969 307.695312 86.878906 307.582031 86.515625 307.582031 Z M 93.992188 312.886719 L 93.992188 307.566406 L 93.027344 307.566406 L 93.027344 306.28125 L 93.992188 306.28125 L 93.992188 305.710938 C 93.992188 304.960938 94.207031 304.390625 94.636719 303.980469 C 95.054688 303.582031 95.648438 303.378906 96.410156 303.378906 C 96.648438 303.378906 96.945312 303.417969 97.300781 303.488281 L 97.28125 304.867188 C 97.132812 304.828125 96.953125 304.8125 96.753906 304.8125 C 96.097656 304.8125 95.761719 305.121094 95.761719 305.75 L 95.761719 306.28125 L 97.058594 306.28125 L 97.058594 307.566406 L 95.761719 307.566406 L 95.761719 312.886719 Z M 97.710938 309.519531 C 97.710938 308.867188 97.828125 308.277344 98.070312 307.761719 C 98.328125 307.246094 98.695312 306.855469 99.167969 306.570312 C 99.644531 306.289062 100.1875 306.144531 100.816406 306.144531 C 101.695312 306.144531 102.414062 306.421875 102.984375 306.972656 C 103.546875 307.515625 103.863281 308.25 103.933594 309.199219 L 103.933594 309.660156 C 103.933594 310.660156 103.652344 311.46875 103.089844 312.09375 C 102.535156 312.710938 101.777344 313.015625 100.828125 313.015625 C 99.875 313.015625 99.117188 312.710938 98.546875 312.09375 C 97.992188 311.484375 97.710938 310.652344 97.710938 309.597656 Z M 99.457031 309.660156 C 99.457031 310.28125 99.574219 310.753906 99.8125 311.085938 C 100.050781 311.410156 100.390625 311.582031 100.828125 311.582031 C 101.257812 311.582031 101.582031 311.410156 101.820312 311.085938 C 102.058594 310.753906 102.179688 310.234375 102.179688 309.519531 C 102.179688 308.902344 102.058594 308.425781 101.820312 308.09375 C 101.582031 307.753906 101.25 307.582031 100.816406 307.582031 C 100.386719 307.582031 100.050781 307.753906 99.8125 308.09375 C 99.574219 308.425781 99.457031 308.945312 99.457031 309.660156 Z M 108.703125 307.929688 C 108.476562 307.886719 108.265625 307.871094 108.085938 307.871094 C 107.417969 307.871094 106.980469 308.101562 106.769531 308.554688 L 106.769531 312.886719 L 105.023438 312.886719 L 105.023438 306.28125 L 106.683594 306.28125 L 106.738281 307.066406 C 107.085938 306.457031 107.578125 306.144531 108.199219 306.144531 C 108.386719 306.144531 108.578125 306.175781 108.746094 306.226562 Z M 113.71875 303.289062 L 114.558594 303.761719 C 114.203125 304.324219 114.019531 304.890625 114.011719 305.449219 L 114.011719 306.484375 L 112.625 306.484375 L 112.625 305.5625 C 112.625 305.183594 112.726562 304.777344 112.929688 304.347656 C 113.160156 303.910156 113.425781 303.558594 113.71875 303.289062 Z M 116.0625 303.289062 L 116.894531 303.761719 C 116.546875 304.324219 116.359375 304.890625 116.351562 305.449219 L 116.351562 306.484375 L 114.964844 306.484375 L 114.964844 305.5625 C 114.964844 305.183594 115.066406 304.777344 115.273438 304.347656 C 115.492188 303.910156 115.75 303.558594 116.0625 303.289062 Z M 120.457031 311.582031 C 120.769531 311.582031 121.03125 311.492188 121.242188 311.320312 C 121.4375 311.136719 121.542969 310.902344 121.542969 310.589844 L 123.207031 310.589844 C 123.199219 311.039062 123.070312 311.457031 122.824219 311.832031 C 122.59375 312.203125 122.269531 312.488281 121.855469 312.699219 C 121.4375 312.910156 120.984375 313.015625 120.46875 313.015625 C 119.527344 313.015625 118.792969 312.714844 118.242188 312.113281 C 117.707031 311.496094 117.445312 310.667969 117.445312 309.617188 L 117.445312 309.503906 C 117.445312 308.480469 117.707031 307.664062 118.242188 307.066406 C 118.792969 306.457031 119.527344 306.144531 120.46875 306.144531 C 121.285156 306.144531 121.941406 306.394531 122.4375 306.867188 C 122.941406 307.328125 123.199219 307.957031 123.207031 308.738281 L 121.542969 308.738281 C 121.542969 308.394531 121.4375 308.121094 121.242188 307.914062 C 121.03125 307.695312 120.757812 307.582031 120.429688 307.582031 C 120.03125 307.582031 119.722656 307.742188 119.507812 308.039062 C 119.292969 308.332031 119.191406 308.820312 119.191406 309.492188 L 119.191406 309.671875 C 119.191406 310.339844 119.292969 310.835938 119.507812 311.136719 C 119.710938 311.4375 120.027344 311.582031 120.457031 311.582031 Z M 127.894531 307.929688 C 127.660156 307.886719 127.453125 307.871094 127.273438 307.871094 C 126.605469 307.871094 126.167969 308.101562 125.957031 308.554688 L 125.957031 312.886719 L 124.207031 312.886719 L 124.207031 306.28125 L 125.867188 306.28125 L 125.921875 307.066406 C 126.273438 306.457031 126.761719 306.144531 127.382812 306.144531 C 127.574219 306.144531 127.761719 306.175781 127.929688 306.226562 Z M 131.78125 313.015625 C 130.820312 313.015625 130.027344 312.714844 129.425781 312.113281 C 128.816406 311.511719 128.507812 310.730469 128.507812 309.75 L 128.507812 309.5625 C 128.507812 308.902344 128.636719 308.308594 128.890625 307.777344 C 129.152344 307.253906 129.507812 306.855469 129.972656 306.570312 C 130.449219 306.289062 130.980469 306.144531 131.570312 306.144531 C 132.472656 306.144531 133.183594 306.441406 133.695312 307.015625 C 134.210938 307.578125 134.476562 308.382812 134.476562 309.433594 L 134.476562 310.144531 L 130.296875 310.144531 C 130.347656 310.578125 130.511719 310.925781 130.789062 311.195312 C 131.082031 311.453125 131.453125 311.582031 131.890625 311.582031 C 132.566406 311.582031 133.09375 311.339844 133.472656 310.847656 L 134.335938 311.820312 C 134.082031 312.191406 133.726562 312.480469 133.273438 312.699219 C 132.828125 312.910156 132.328125 313.015625 131.78125 313.015625 Z M 131.570312 307.582031 C 131.222656 307.582031 130.9375 307.703125 130.71875 307.949219 C 130.511719 308.183594 130.378906 308.511719 130.320312 308.957031 L 132.742188 308.957031 L 132.742188 308.816406 C 132.742188 308.421875 132.640625 308.121094 132.4375 307.914062 C 132.226562 307.695312 131.941406 307.582031 131.570312 307.582031 Z M 139.292969 312.886719 C 139.207031 312.722656 139.144531 312.535156 139.109375 312.296875 C 138.683594 312.769531 138.128906 313.015625 137.445312 313.015625 C 136.804688 313.015625 136.265625 312.820312 135.84375 312.441406 C 135.429688 312.058594 135.214844 311.59375 135.214844 311.027344 C 135.214844 310.324219 135.476562 309.777344 135.992188 309.410156 C 136.515625 309.035156 137.261719 308.847656 138.226562 308.847656 L 139.03125 308.847656 L 139.03125 308.464844 C 139.03125 308.15625 138.957031 307.914062 138.804688 307.734375 C 138.640625 307.542969 138.394531 307.453125 138.070312 307.453125 C 137.777344 307.453125 137.542969 307.527344 137.375 307.671875 C 137.203125 307.820312 137.117188 308.019531 137.117188 308.257812 L 135.367188 308.257812 C 135.367188 307.875 135.480469 307.527344 135.714844 307.195312 C 135.945312 306.867188 136.273438 306.609375 136.695312 306.421875 C 137.136719 306.238281 137.628906 306.144531 138.160156 306.144531 C 138.964844 306.144531 139.597656 306.355469 140.078125 306.777344 C 140.558594 307.183594 140.8125 307.753906 140.8125 308.5 L 140.8125 311.359375 C 140.8125 311.988281 140.886719 312.457031 141.0625 312.769531 L 141.0625 312.886719 Z M 137.832031 311.652344 C 138.089844 311.652344 138.320312 311.597656 138.542969 311.488281 C 138.761719 311.367188 138.925781 311.207031 139.03125 311.015625 L 139.03125 309.875 L 138.378906 309.875 C 137.496094 309.875 137.027344 310.183594 136.96875 310.792969 L 136.96875 310.90625 C 136.96875 311.125 137.046875 311.304688 137.195312 311.453125 C 137.355469 311.589844 137.570312 311.652344 137.832031 311.652344 Z M 144.246094 304.648438 L 144.246094 306.28125 L 145.386719 306.28125 L 145.386719 307.566406 L 144.246094 307.566406 L 144.246094 310.863281 C 144.246094 311.113281 144.296875 311.292969 144.398438 311.398438 C 144.5 311.492188 144.667969 311.542969 144.929688 311.542969 C 145.125 311.542969 145.292969 311.535156 145.4375 311.507812 L 145.4375 312.847656 C 145.097656 312.953125 144.742188 313.015625 144.382812 313.015625 C 143.148438 313.015625 142.515625 312.382812 142.5 311.125 L 142.5 307.566406 L 141.535156 307.566406 L 141.535156 306.28125 L 142.5 306.28125 L 142.5 304.648438 Z M 149.390625 313.015625 C 148.421875 313.015625 147.636719 312.714844 147.035156 312.113281 C 146.421875 311.511719 146.121094 310.730469 146.121094 309.75 L 146.121094 309.5625 C 146.121094 308.902344 146.25 308.308594 146.507812 307.777344 C 146.757812 307.253906 147.113281 306.855469 147.578125 306.570312 C 148.054688 306.289062 148.585938 306.144531 149.191406 306.144531 C 150.09375 306.144531 150.792969 306.441406 151.308594 307.015625 C 151.832031 307.578125 152.097656 308.382812 152.097656 309.433594 L 152.097656 310.144531 L 147.910156 310.144531 C 147.957031 310.578125 148.117188 310.925781 148.402344 311.195312 C 148.691406 311.453125 149.058594 311.582031 149.492188 311.582031 C 150.183594 311.582031 150.703125 311.339844 151.082031 310.847656 L 151.941406 311.820312 C 151.6875 312.191406 151.332031 312.480469 150.882812 312.699219 C 150.429688 312.910156 149.933594 313.015625 149.390625 313.015625 Z M 149.191406 307.582031 C 148.835938 307.582031 148.542969 307.703125 148.328125 307.949219 C 148.117188 308.183594 147.992188 308.511719 147.925781 308.957031 L 150.359375 308.957031 L 150.359375 308.816406 C 150.359375 308.421875 150.25 308.121094 150.046875 307.914062 C 149.839844 307.695312 149.546875 307.582031 149.191406 307.582031 Z M 157.960938 314.265625 L 152.414062 314.265625 L 152.414062 312.886719 L 157.960938 312.886719 Z M 162.332031 307.929688 C 162.097656 307.886719 161.894531 307.871094 161.707031 307.871094 C 161.042969 307.871094 160.609375 308.101562 160.398438 308.554688 L 160.398438 312.886719 L 158.652344 312.886719 L 158.652344 306.28125 L 160.304688 306.28125 L 160.355469 307.066406 C 160.714844 306.457031 161.199219 306.144531 161.816406 306.144531 C 162.015625 306.144531 162.199219 306.175781 162.363281 306.226562 Z M 166.214844 313.015625 C 165.253906 313.015625 164.46875 312.714844 163.859375 312.113281 C 163.25 311.511719 162.949219 310.730469 162.949219 309.75 L 162.949219 309.5625 C 162.949219 308.902344 163.070312 308.308594 163.324219 307.777344 C 163.585938 307.253906 163.949219 306.855469 164.410156 306.570312 C 164.882812 306.289062 165.417969 306.144531 166.019531 306.144531 C 166.917969 306.144531 167.613281 306.441406 168.132812 307.015625 C 168.65625 307.578125 168.921875 308.382812 168.921875 309.433594 L 168.921875 310.144531 L 164.738281 310.144531 C 164.785156 310.578125 164.953125 310.925781 165.226562 311.195312 C 165.519531 311.453125 165.886719 311.582031 166.324219 311.582031 C 167.003906 311.582031 167.535156 311.339844 167.917969 310.847656 L 168.769531 311.820312 C 168.511719 312.191406 168.164062 312.480469 167.707031 312.699219 C 167.261719 312.910156 166.761719 313.015625 166.214844 313.015625 Z M 166.019531 307.582031 C 165.65625 307.582031 165.375 307.703125 165.15625 307.949219 C 164.953125 308.183594 164.816406 308.511719 164.753906 308.957031 L 167.183594 308.957031 L 167.183594 308.816406 C 167.183594 308.421875 167.078125 308.121094 166.871094 307.914062 C 166.660156 307.695312 166.378906 307.582031 166.019531 307.582031 Z M 169.644531 309.519531 C 169.644531 308.488281 169.871094 307.664062 170.332031 307.066406 C 170.792969 306.457031 171.425781 306.144531 172.234375 306.144531 C 172.921875 306.144531 173.488281 306.417969 173.90625 306.960938 L 174.015625 306.28125 L 175.578125 306.28125 L 175.578125 315.433594 L 173.800781 315.433594 L 173.800781 312.3125 C 173.402344 312.773438 172.875 313.015625 172.210938 313.015625 C 171.4375 313.015625 170.808594 312.710938 170.332031 312.09375 C 169.871094 311.484375 169.644531 310.632812 169.644531 309.519531 Z M 171.394531 309.660156 C 171.394531 310.28125 171.503906 310.753906 171.71875 311.085938 C 171.949219 311.410156 172.261719 311.582031 172.65625 311.582031 C 173.195312 311.582031 173.582031 311.367188 173.800781 310.9375 L 173.800781 308.203125 C 173.582031 307.792969 173.207031 307.582031 172.671875 307.582031 C 172.269531 307.582031 171.949219 307.75 171.71875 308.078125 C 171.503906 308.410156 171.394531 308.933594 171.394531 309.660156 Z M 180.890625 312.203125 C 180.453125 312.746094 179.847656 313.015625 179.082031 313.015625 C 178.375 313.015625 177.835938 312.8125 177.460938 312.410156 C 177.089844 311.992188 176.910156 311.394531 176.910156 310.609375 L 176.910156 306.28125 L 178.65625 306.28125 L 178.65625 310.535156 C 178.65625 311.230469 178.972656 311.582031 179.59375 311.582031 C 180.1875 311.582031 180.601562 311.371094 180.816406 310.960938 L 180.816406 306.28125 L 182.585938 306.28125 L 182.585938 312.886719 L 180.925781 312.886719 Z M 186.945312 313.015625 C 185.980469 313.015625 185.199219 312.714844 184.589844 312.113281 C 183.984375 311.511719 183.671875 310.730469 183.671875 309.75 L 183.671875 309.5625 C 183.671875 308.902344 183.808594 308.308594 184.054688 307.777344 C 184.316406 307.253906 184.671875 306.855469 185.136719 306.570312 C 185.609375 306.289062 186.148438 306.144531 186.738281 306.144531 C 187.640625 306.144531 188.347656 306.441406 188.859375 307.015625 C 189.386719 307.578125 189.644531 308.382812 189.644531 309.433594 L 189.644531 310.144531 L 185.464844 310.144531 C 185.511719 310.578125 185.675781 310.925781 185.953125 311.195312 C 186.246094 311.453125 186.613281 311.582031 187.050781 311.582031 C 187.734375 311.582031 188.265625 311.339844 188.640625 310.847656 L 189.496094 311.820312 C 189.246094 312.191406 188.890625 312.480469 188.4375 312.699219 C 187.996094 312.910156 187.488281 313.015625 186.945312 313.015625 Z M 186.738281 307.582031 C 186.390625 307.582031 186.105469 307.703125 185.882812 307.949219 C 185.675781 308.183594 185.546875 308.511719 185.480469 308.957031 L 187.910156 308.957031 L 187.910156 308.816406 C 187.910156 308.421875 187.808594 308.121094 187.601562 307.914062 C 187.394531 307.695312 187.109375 307.582031 186.738281 307.582031 Z M 194.203125 311.042969 C 194.203125 310.84375 194.089844 310.671875 193.871094 310.558594 C 193.664062 310.414062 193.328125 310.300781 192.867188 310.199219 C 191.304688 309.882812 190.515625 309.21875 190.515625 308.203125 C 190.515625 307.613281 190.753906 307.128906 191.238281 306.742188 C 191.734375 306.347656 192.363281 306.144531 193.140625 306.144531 C 193.972656 306.144531 194.632812 306.351562 195.136719 306.753906 C 195.644531 307.144531 195.898438 307.65625 195.898438 308.277344 L 194.132812 308.277344 C 194.132812 308.035156 194.050781 307.828125 193.890625 307.671875 C 193.738281 307.496094 193.480469 307.414062 193.128906 307.414062 C 192.839844 307.414062 192.605469 307.484375 192.449219 307.613281 C 192.289062 307.753906 192.214844 307.921875 192.214844 308.132812 C 192.214844 308.328125 192.308594 308.488281 192.484375 308.605469 C 192.671875 308.722656 192.976562 308.824219 193.417969 308.925781 C 193.855469 309.011719 194.222656 309.109375 194.511719 309.214844 C 195.445312 309.554688 195.917969 310.140625 195.917969 310.972656 C 195.917969 311.589844 195.660156 312.085938 195.136719 312.464844 C 194.621094 312.828125 193.960938 313.015625 193.140625 313.015625 C 192.59375 313.015625 192.113281 312.917969 191.6875 312.71875 C 191.257812 312.507812 190.921875 312.238281 190.683594 311.902344 C 190.429688 311.550781 190.3125 311.179688 190.3125 310.777344 L 191.972656 310.777344 C 191.988281 311.089844 192.101562 311.339844 192.320312 311.507812 C 192.539062 311.664062 192.828125 311.746094 193.179688 311.746094 C 193.523438 311.746094 193.769531 311.6875 193.945312 311.566406 C 194.121094 311.429688 194.203125 311.257812 194.203125 311.042969 Z M 199.148438 304.648438 L 199.148438 306.28125 L 200.269531 306.28125 L 200.269531 307.566406 L 199.148438 307.566406 L 199.148438 310.863281 C 199.148438 311.113281 199.191406 311.292969 199.289062 311.398438 C 199.386719 311.492188 199.558594 311.542969 199.820312 311.542969 C 200.007812 311.542969 200.179688 311.535156 200.332031 311.507812 L 200.332031 312.847656 C 199.988281 312.953125 199.632812 313.015625 199.265625 313.015625 C 198.042969 313.015625 197.417969 312.382812 197.390625 311.125 L 197.390625 307.566406 L 196.425781 307.566406 L 196.425781 306.28125 L 197.390625 306.28125 L 197.390625 304.648438 Z M 201.769531 306.71875 L 200.925781 306.238281 C 201.269531 305.691406 201.460938 305.121094 201.46875 304.535156 L 201.46875 303.488281 L 202.878906 303.488281 L 202.878906 304.441406 C 202.878906 304.8125 202.777344 305.210938 202.566406 305.636719 C 202.355469 306.066406 202.085938 306.421875 201.769531 306.71875 Z M 204.09375 306.71875 L 203.257812 306.238281 C 203.613281 305.691406 203.792969 305.121094 203.800781 304.535156 L 203.800781 303.488281 L 205.214844 303.488281 L 205.214844 304.441406 C 205.214844 304.8125 205.113281 305.210938 204.898438 305.636719 C 204.695312 306.066406 204.421875 306.421875 204.09375 306.71875 Z M 204.09375 306.71875 "/>
<path style="fill:none;stroke-width:1;stroke-linecap:butt;stroke-linejoin:round;stroke:rgb(6.666667%,33.333334%,80.000001%);stroke-opacity:1;stroke-dasharray:4,3;stroke-miterlimit:10;" d="M 33.384989 64.960525 L 190.615387 64.960525 L 190.615387 94.599928 L 33.384989 94.599928 Z M 33.384989 64.960525 " transform="matrix(1.168294,0,0,1.174271,0.262127,0)"/>
<path style=" stroke:none;fill-rule:nonzero;fill:rgb(71.764708%,71.764708%,71.764708%);fill-opacity:1;" d="M 127.574219 96.859375 C 127.574219 96.691406 127.621094 96.550781 127.722656 96.4375 C 127.832031 96.324219 127.980469 96.257812 128.179688 96.257812 C 128.386719 96.257812 128.539062 96.324219 128.636719 96.4375 C 128.746094 96.550781 128.796875 96.691406 128.796875 96.859375 C 128.796875 97.019531 128.746094 97.160156 128.636719 97.265625 C 128.539062 97.371094 128.386719 97.425781 128.179688 97.425781 C 127.980469 97.425781 127.832031 97.371094 127.722656 97.265625 C 127.621094 97.160156 127.574219 97.019531 127.574219 96.859375 Z M 130.449219 96.859375 C 130.449219 96.691406 130.496094 96.550781 130.585938 96.4375 C 130.699219 96.324219 130.847656 96.257812 131.042969 96.257812 C 131.253906 96.257812 131.40625 96.324219 131.503906 96.4375 C 131.613281 96.550781 131.667969 96.691406 131.667969 96.859375 C 131.667969 97.019531 131.613281 97.160156 131.503906 97.265625 C 131.40625 97.371094 131.253906 97.425781 131.042969 97.425781 C 130.847656 97.425781 130.699219 97.371094 130.585938 97.265625 C 130.496094 97.160156 130.449219 97.019531 130.449219 96.859375 Z M 133.3125 96.859375 C 133.3125 96.691406 133.359375 96.550781 133.460938 96.4375 C 133.566406 96.324219 133.722656 96.257812 133.910156 96.257812 C 134.121094 96.257812 134.273438 96.324219 134.367188 96.4375 C 134.476562 96.550781 134.53125 96.691406 134.53125 96.859375 C 134.53125 97.019531 134.476562 97.160156 134.367188 97.265625 C 134.273438 97.371094 134.121094 97.425781 133.910156 97.425781 C 133.722656 97.425781 133.566406 97.371094 133.460938 97.265625 C 133.359375 97.160156 133.3125 97.019531 133.3125 96.859375 Z M 133.3125 96.859375 "/>
<path style="fill-rule:evenodd;fill:rgb(100%,100%,100%);fill-opacity:1;stroke-width:1;stroke-linecap:butt;stroke-linejoin:round;stroke:rgb(60.000002%,0%,0%);stroke-opacity:1;stroke-miterlimit:10;" d="M 33.384989 306.486735 L 190.615387 306.486735 L 190.615387 336.126139 L 33.384989 336.126139 Z M 33.384989 306.486735 " transform="matrix(1.168294,0,0,1.174271,0.262127,0)"/>
<path style=" stroke:none;fill-rule:nonzero;fill:rgb(60.000002%,0%,0%);fill-opacity:1;" d="M 84.628906 379.386719 L 81.824219 379.386719 L 81.28125 380.988281 L 79.589844 380.988281 L 82.476562 373.210938 L 83.953125 373.210938 L 86.855469 380.988281 L 85.160156 380.988281 Z M 82.261719 378.082031 L 84.191406 378.082031 L 83.226562 375.167969 Z M 90.449219 378.140625 L 89.171875 378.140625 L 89.171875 380.988281 L 87.582031 380.988281 L 87.582031 373.210938 L 90.464844 373.210938 C 91.371094 373.210938 92.082031 373.414062 92.566406 373.824219 C 93.066406 374.238281 93.3125 374.808594 93.3125 375.554688 C 93.3125 376.074219 93.199219 376.519531 92.972656 376.878906 C 92.746094 377.230469 92.40625 377.511719 91.941406 377.722656 L 93.609375 380.914062 L 93.609375 380.988281 L 91.910156 380.988281 Z M 89.171875 376.84375 L 90.464844 376.84375 C 90.871094 376.84375 91.179688 376.742188 91.398438 376.527344 C 91.621094 376.324219 91.730469 376.042969 91.730469 375.683594 C 91.730469 375.320312 91.625 375.03125 91.414062 374.816406 C 91.207031 374.601562 90.890625 374.488281 90.464844 374.488281 L 89.171875 374.488281 Z M 100.667969 380 C 100.382812 380.347656 99.964844 380.625 99.445312 380.824219 C 98.921875 381.007812 98.339844 381.097656 97.695312 381.097656 C 97.027344 381.097656 96.433594 380.953125 95.925781 380.660156 C 95.425781 380.367188 95.035156 379.933594 94.753906 379.375 C 94.484375 378.808594 94.355469 378.144531 94.332031 377.394531 L 94.332031 376.878906 C 94.332031 376.09375 94.464844 375.421875 94.71875 374.859375 C 94.988281 374.285156 95.367188 373.855469 95.851562 373.554688 C 96.359375 373.246094 96.929688 373.089844 97.585938 373.089844 C 98.507812 373.089844 99.226562 373.316406 99.738281 373.757812 C 100.265625 374.199219 100.570312 374.84375 100.667969 375.683594 L 99.117188 375.683594 C 99.046875 375.230469 98.894531 374.902344 98.648438 374.695312 C 98.394531 374.484375 98.066406 374.382812 97.644531 374.382812 C 97.097656 374.382812 96.675781 374.59375 96.390625 375 C 96.117188 375.410156 95.976562 376.019531 95.957031 376.84375 L 95.957031 377.335938 C 95.957031 378.140625 96.109375 378.761719 96.417969 379.191406 C 96.730469 379.601562 97.191406 379.816406 97.78125 379.816406 C 98.382812 379.816406 98.8125 379.679688 99.0625 379.425781 L 99.0625 378.070312 L 97.625 378.070312 L 97.625 376.894531 L 100.667969 376.894531 Z M 107.816406 373.210938 L 107.816406 378.328125 C 107.816406 379.1875 107.554688 379.863281 107.019531 380.367188 C 106.492188 380.855469 105.765625 381.097656 104.84375 381.097656 C 103.941406 381.097656 103.226562 380.859375 102.6875 380.386719 C 102.167969 379.886719 101.90625 379.226562 101.882812 378.382812 L 101.882812 373.210938 L 103.472656 373.210938 L 103.472656 378.34375 C 103.472656 378.851562 103.59375 379.222656 103.839844 379.464844 C 104.082031 379.699219 104.414062 379.816406 104.84375 379.816406 C 105.746094 379.816406 106.203125 379.332031 106.210938 378.382812 L 106.210938 373.210938 Z M 111.214844 373.210938 L 113.199219 378.847656 L 115.191406 373.210938 L 117.277344 373.210938 L 117.277344 380.988281 L 115.691406 380.988281 L 115.691406 378.859375 L 115.832031 375.1875 L 113.753906 380.988281 L 112.65625 380.988281 L 110.578125 375.1875 L 110.71875 378.859375 L 110.71875 380.988281 L 109.136719 380.988281 L 109.136719 373.210938 Z M 123.332031 377.609375 L 120.265625 377.609375 L 120.265625 379.703125 L 123.863281 379.703125 L 123.863281 380.988281 L 118.679688 380.988281 L 118.679688 373.210938 L 123.863281 373.210938 L 123.863281 374.488281 L 120.265625 374.488281 L 120.265625 376.355469 L 123.332031 376.355469 Z M 131.109375 380.988281 L 129.515625 380.988281 L 126.394531 375.871094 L 126.394531 380.988281 L 124.808594 380.988281 L 124.808594 373.210938 L 126.394531 373.210938 L 129.515625 378.328125 L 129.515625 373.210938 L 131.109375 373.210938 Z M 138.328125 374.488281 L 135.957031 374.488281 L 135.957031 380.988281 L 134.363281 380.988281 L 134.363281 374.488281 L 132.03125 374.488281 L 132.03125 373.210938 L 138.328125 373.210938 Z M 145.519531 380.988281 L 143.988281 380.988281 L 143.988281 375.027344 L 142.164062 375.59375 L 142.164062 374.34375 L 145.355469 373.183594 L 145.519531 373.183594 Z M 145.519531 380.988281 "/>
<path style=" stroke:none;fill-rule:nonzero;fill:rgb(60.000002%,0%,0%);fill-opacity:1;" d="M 155.476562 376.632812 L 151.035156 376.632812 L 151.035156 375.773438 L 155.476562 375.773438 Z M 155.476562 378.859375 L 151.035156 378.859375 L 151.035156 377.988281 L 155.476562 377.988281 Z M 164.410156 377.664062 C 164.410156 378.824219 164.210938 379.691406 163.824219 380.253906 C 163.429688 380.820312 162.820312 381.097656 161.976562 381.097656 C 161.148438 381.097656 160.535156 380.824219 160.136719 380.273438 C 159.746094 379.71875 159.550781 378.890625 159.53125 377.792969 L 159.53125 376.476562 C 159.53125 375.332031 159.726562 374.488281 160.113281 373.949219 C 160.507812 373.371094 161.117188 373.089844 161.960938 373.089844 C 162.796875 373.089844 163.414062 373.363281 163.800781 373.90625 C 164.207031 374.429688 164.410156 375.253906 164.410156 376.386719 Z M 163.417969 376.3125 C 163.417969 375.480469 163.304688 374.867188 163.070312 374.488281 C 162.84375 374.09375 162.472656 373.90625 161.960938 373.90625 C 161.464844 373.90625 161.097656 374.089844 160.867188 374.476562 C 160.632812 374.855469 160.511719 375.441406 160.5 376.234375 L 160.5 377.808594 C 160.5 378.65625 160.621094 379.28125 160.867188 379.679688 C 161.109375 380.089844 161.480469 380.289062 161.976562 380.289062 C 162.46875 380.289062 162.824219 380.101562 163.058594 379.71875 C 163.300781 379.335938 163.417969 378.753906 163.417969 377.945312 Z M 167.710938 377.316406 L 168.992188 375.210938 L 170.144531 375.210938 L 168.246094 378.070312 L 170.195312 380.988281 L 169.046875 380.988281 L 167.730469 378.820312 L 166.402344 380.988281 L 165.253906 380.988281 L 167.183594 378.070312 L 165.308594 375.210938 L 166.457031 375.210938 Z M 175.929688 377.664062 C 175.929688 378.824219 175.734375 379.691406 175.34375 380.253906 C 174.953125 380.820312 174.339844 381.097656 173.5 381.097656 C 172.671875 381.097656 172.054688 380.824219 171.660156 380.273438 C 171.269531 379.71875 171.0625 378.890625 171.050781 377.792969 L 171.050781 376.476562 C 171.050781 375.332031 171.242188 374.488281 171.632812 373.949219 C 172.023438 373.371094 172.636719 373.089844 173.484375 373.089844 C 174.324219 373.089844 174.9375 373.363281 175.328125 373.90625 C 175.730469 374.429688 175.929688 375.253906 175.929688 376.386719 Z M 174.945312 376.3125 C 174.945312 375.480469 174.828125 374.867188 174.589844 374.488281 C 174.363281 374.09375 173.992188 373.90625 173.484375 373.90625 C 172.984375 373.90625 172.617188 374.089844 172.390625 374.476562 C 172.152344 374.855469 172.035156 375.441406 172.019531 376.234375 L 172.019531 377.808594 C 172.019531 378.65625 172.140625 379.28125 172.390625 379.679688 C 172.628906 380.089844 173.003906 380.289062 173.5 380.289062 C 173.988281 380.289062 174.34375 380.101562 174.578125 379.71875 C 174.824219 379.335938 174.945312 378.753906 174.945312 377.945312 Z M 182.175781 378.160156 C 182.175781 379.039062 181.972656 379.753906 181.550781 380.289062 C 181.152344 380.828125 180.609375 381.097656 179.925781 381.097656 C 179.210938 381.097656 178.648438 380.84375 178.253906 380.324219 L 178.199219 380.988281 L 177.300781 380.988281 L 177.300781 372.765625 L 178.285156 372.765625 L 178.285156 375.832031 C 178.683594 375.339844 179.21875 375.089844 179.910156 375.089844 C 180.613281 375.089844 181.171875 375.367188 181.570312 375.902344 C 181.976562 376.433594 182.175781 377.144531 182.175781 378.070312 Z M 181.1875 378.046875 C 181.1875 377.382812 181.054688 376.855469 180.792969 376.492188 C 180.53125 376.121094 180.164062 375.945312 179.683594 375.945312 C 179.027344 375.945312 178.566406 376.238281 178.285156 376.84375 L 178.285156 379.355469 C 178.59375 379.949219 179.0625 380.253906 179.695312 380.253906 C 180.167969 380.253906 180.53125 380.066406 180.792969 379.703125 C 181.054688 379.332031 181.1875 378.777344 181.1875 378.046875 Z M 181.1875 378.046875 "/>
<path style="fill-rule:evenodd;fill:rgb(100%,100%,100%);fill-opacity:1;stroke-width:1;stroke-linecap:butt;stroke-linejoin:round;stroke:rgb(21.960784%,46.27451%,11.372549%);stroke-opacity:1;stroke-miterlimit:10;" d="M 33.384989 202.502659 L 190.615387 202.502659 L 190.615387 232.145389 L 33.384989 232.145389 Z M 33.384989 202.502659 " transform="matrix(1.168294,0,0,1.174271,0.262127,0)"/>
<path style=" stroke:none;fill-rule:nonzero;fill:rgb(21.960784%,46.27451%,11.372549%);fill-opacity:1;" d="M 84.628906 257.292969 L 81.824219 257.292969 L 81.28125 258.886719 L 79.589844 258.886719 L 82.476562 251.109375 L 83.953125 251.109375 L 86.855469 258.886719 L 85.160156 258.886719 Z M 82.261719 255.992188 L 84.191406 255.992188 L 83.226562 253.074219 Z M 90.449219 256.042969 L 89.171875 256.042969 L 89.171875 258.886719 L 87.582031 258.886719 L 87.582031 251.109375 L 90.464844 251.109375 C 91.371094 251.109375 92.082031 251.316406 92.566406 251.730469 C 93.066406 252.136719 93.3125 252.707031 93.3125 253.460938 C 93.3125 253.980469 93.199219 254.421875 92.972656 254.773438 C 92.746094 255.132812 92.40625 255.410156 91.941406 255.621094 L 93.609375 258.816406 L 93.609375 258.886719 L 91.910156 258.886719 Z M 89.171875 254.734375 L 90.464844 254.734375 C 90.871094 254.734375 91.179688 254.640625 91.398438 254.425781 C 91.621094 254.21875 91.730469 253.9375 91.730469 253.585938 C 91.730469 253.214844 91.625 252.929688 91.414062 252.726562 C 91.207031 252.503906 90.890625 252.394531 90.464844 252.394531 L 89.171875 252.394531 Z M 100.667969 257.894531 C 100.382812 258.253906 99.964844 258.53125 99.445312 258.722656 C 98.921875 258.902344 98.339844 259 97.695312 259 C 97.027344 259 96.433594 258.84375 95.925781 258.554688 C 95.425781 258.261719 95.035156 257.832031 94.753906 257.269531 C 94.484375 256.710938 94.355469 256.050781 94.332031 255.289062 L 94.332031 254.773438 C 94.332031 253.992188 94.464844 253.316406 94.71875 252.757812 C 94.988281 252.1875 95.367188 251.75 95.851562 251.457031 C 96.359375 251.152344 96.929688 250.992188 97.585938 250.992188 C 98.507812 250.992188 99.226562 251.222656 99.738281 251.660156 C 100.265625 252.097656 100.570312 252.742188 100.667969 253.585938 L 99.117188 253.585938 C 99.046875 253.132812 98.894531 252.800781 98.648438 252.589844 C 98.394531 252.390625 98.066406 252.285156 97.644531 252.285156 C 97.097656 252.285156 96.675781 252.488281 96.390625 252.910156 C 96.117188 253.308594 95.976562 253.925781 95.957031 254.734375 L 95.957031 255.234375 C 95.957031 256.042969 96.109375 256.660156 96.417969 257.089844 C 96.730469 257.503906 97.191406 257.714844 97.78125 257.714844 C 98.382812 257.714844 98.8125 257.582031 99.0625 257.324219 L 99.0625 255.96875 L 97.625 255.96875 L 97.625 254.792969 L 100.667969 254.792969 Z M 107.816406 251.109375 L 107.816406 256.226562 C 107.816406 257.085938 107.554688 257.761719 107.019531 258.261719 C 106.492188 258.757812 105.765625 259 104.84375 259 C 103.941406 259 103.226562 258.761719 102.6875 258.28125 C 102.167969 257.796875 101.90625 257.128906 101.882812 256.285156 L 101.882812 251.109375 L 103.472656 251.109375 L 103.472656 256.246094 C 103.472656 256.75 103.59375 257.125 103.839844 257.367188 C 104.082031 257.597656 104.414062 257.714844 104.84375 257.714844 C 105.746094 257.714844 106.203125 257.238281 106.210938 256.285156 L 106.210938 251.109375 Z M 111.214844 251.109375 L 113.199219 256.738281 L 115.191406 251.109375 L 117.277344 251.109375 L 117.277344 258.886719 L 115.691406 258.886719 L 115.691406 256.761719 L 115.832031 253.089844 L 113.753906 258.886719 L 112.65625 258.886719 L 110.578125 253.089844 L 110.71875 256.761719 L 110.71875 258.886719 L 109.136719 258.886719 L 109.136719 251.109375 Z M 123.332031 255.507812 L 120.265625 255.507812 L 120.265625 257.601562 L 123.863281 257.601562 L 123.863281 258.886719 L 118.679688 258.886719 L 118.679688 251.109375 L 123.863281 251.109375 L 123.863281 252.394531 L 120.265625 252.394531 L 120.265625 254.261719 L 123.332031 254.261719 Z M 131.109375 258.886719 L 129.515625 258.886719 L 126.394531 253.769531 L 126.394531 258.886719 L 124.808594 258.886719 L 124.808594 251.109375 L 126.394531 251.109375 L 129.515625 256.226562 L 129.515625 251.109375 L 131.109375 251.109375 Z M 138.328125 252.394531 L 135.957031 252.394531 L 135.957031 258.886719 L 134.363281 258.886719 L 134.363281 252.394531 L 132.03125 252.394531 L 132.03125 251.109375 L 138.328125 251.109375 Z M 145.519531 258.886719 L 143.988281 258.886719 L 143.988281 252.925781 L 142.164062 253.496094 L 142.164062 252.242188 L 145.355469 251.09375 L 145.519531 251.09375 Z M 145.519531 258.886719 "/>
<path style=" stroke:none;fill-rule:nonzero;fill:rgb(21.960784%,46.27451%,11.372549%);fill-opacity:1;" d="M 155.476562 254.542969 L 151.035156 254.542969 L 151.035156 253.675781 L 155.476562 253.675781 Z M 155.476562 256.761719 L 151.035156 256.761719 L 151.035156 255.894531 L 155.476562 255.894531 Z M 164.410156 255.566406 C 164.410156 256.730469 164.210938 257.585938 163.824219 258.152344 C 163.429688 258.71875 162.820312 259 161.976562 259 C 161.148438 259 160.535156 258.722656 160.136719 258.171875 C 159.746094 257.625 159.550781 256.789062 159.53125 255.691406 L 159.53125 254.375 C 159.53125 253.238281 159.726562 252.394531 160.113281 251.839844 C 160.507812 251.28125 161.117188 250.992188 161.960938 250.992188 C 162.796875 250.992188 163.414062 251.265625 163.800781 251.804688 C 164.207031 252.332031 164.410156 253.152344 164.410156 254.285156 Z M 163.417969 254.207031 C 163.417969 253.378906 163.304688 252.769531 163.070312 252.394531 C 162.84375 252.003906 162.472656 251.804688 161.960938 251.804688 C 161.464844 251.804688 161.097656 251.996094 160.867188 252.371094 C 160.632812 252.753906 160.511719 253.335938 160.5 254.136719 L 160.5 255.714844 C 160.5 256.558594 160.621094 257.183594 160.867188 257.582031 C 161.109375 257.988281 161.480469 258.191406 161.976562 258.191406 C 162.46875 258.191406 162.824219 257.996094 163.058594 257.625 C 163.300781 257.242188 163.417969 256.648438 163.417969 255.839844 Z M 167.710938 255.21875 L 168.992188 253.101562 L 170.144531 253.101562 L 168.246094 255.96875 L 170.195312 258.886719 L 169.046875 258.886719 L 167.730469 256.726562 L 166.402344 258.886719 L 165.253906 258.886719 L 167.183594 255.96875 L 165.308594 253.101562 L 166.457031 253.101562 Z M 175.929688 255.566406 C 175.929688 256.730469 175.734375 257.585938 175.34375 258.152344 C 174.953125 258.71875 174.339844 259 173.5 259 C 172.671875 259 172.054688 258.722656 171.660156 258.171875 C 171.269531 257.625 171.0625 256.789062 171.050781 255.691406 L 171.050781 254.375 C 171.050781 253.238281 171.242188 252.394531 171.632812 251.839844 C 172.023438 251.28125 172.636719 250.992188 173.484375 250.992188 C 174.324219 250.992188 174.9375 251.265625 175.328125 251.804688 C 175.730469 252.332031 175.929688 253.152344 175.929688 254.285156 Z M 174.945312 254.207031 C 174.945312 253.378906 174.828125 252.769531 174.589844 252.394531 C 174.363281 252.003906 173.992188 251.804688 173.484375 251.804688 C 172.984375 251.804688 172.617188 251.996094 172.390625 252.371094 C 172.152344 252.753906 172.035156 253.335938 172.019531 254.136719 L 172.019531 255.714844 C 172.019531 256.558594 172.140625 257.183594 172.390625 257.582031 C 172.628906 257.988281 173.003906 258.191406 173.5 258.191406 C 173.988281 258.191406 174.34375 257.996094 174.578125 257.625 C 174.824219 257.242188 174.945312 256.648438 174.945312 255.839844 Z M 182.175781 256.058594 C 182.175781 256.941406 181.972656 257.652344 181.550781 258.191406 C 181.152344 258.726562 180.609375 259 179.925781 259 C 179.210938 259 178.648438 258.738281 178.253906 258.226562 L 178.199219 258.886719 L 177.300781 258.886719 L 177.300781 250.667969 L 178.285156 250.667969 L 178.285156 253.730469 C 178.683594 253.242188 179.21875 252.996094 179.910156 252.996094 C 180.613281 252.996094 181.171875 253.265625 181.570312 253.804688 C 181.976562 254.332031 182.175781 255.050781 182.175781 255.96875 Z M 181.1875 255.949219 C 181.1875 255.28125 181.054688 254.761719 180.792969 254.390625 C 180.53125 254.027344 180.164062 253.839844 179.683594 253.839844 C 179.027344 253.839844 178.566406 254.144531 178.285156 254.734375 L 178.285156 257.253906 C 178.59375 257.855469 179.0625 258.152344 179.695312 258.152344 C 180.167969 258.152344 180.53125 257.972656 180.792969 257.601562 C 181.054688 257.238281 181.1875 256.683594 181.1875 255.949219 Z M 181.1875 255.949219 "/>
<path style="fill-rule:evenodd;fill:rgb(100%,100%,100%);fill-opacity:1;stroke-width:1;stroke-linecap:butt;stroke-linejoin:round;stroke:rgb(6.666667%,33.333334%,80.000001%);stroke-opacity:1;stroke-miterlimit:10;" d="M 33.384989 94.599928 L 190.615387 94.599928 L 190.615387 124.236005 L 33.384989 124.236005 Z M 33.384989 94.599928 " transform="matrix(1.168294,0,0,1.174271,0.262127,0)"/>
<path style=" stroke:none;fill-rule:nonzero;fill:rgb(6.666667%,33.333334%,80.000001%);fill-opacity:1;" d="M 84.628906 130.578125 L 81.824219 130.578125 L 81.28125 132.179688 L 79.589844 132.179688 L 82.476562 124.394531 L 83.953125 124.394531 L 86.855469 132.179688 L 85.160156 132.179688 Z M 82.261719 129.277344 L 84.191406 129.277344 L 83.226562 126.363281 Z M 90.449219 129.335938 L 89.171875 129.335938 L 89.171875 132.179688 L 87.582031 132.179688 L 87.582031 124.394531 L 90.464844 124.394531 C 91.371094 124.394531 92.082031 124.605469 92.566406 125.023438 C 93.066406 125.425781 93.3125 126 93.3125 126.746094 C 93.3125 127.269531 93.199219 127.714844 92.972656 128.074219 C 92.746094 128.421875 92.40625 128.707031 91.941406 128.914062 L 93.609375 132.101562 L 93.609375 132.179688 L 91.910156 132.179688 Z M 89.171875 128.03125 L 90.464844 128.03125 C 90.871094 128.03125 91.179688 127.925781 91.398438 127.71875 C 91.621094 127.511719 91.730469 127.230469 91.730469 126.875 C 91.730469 126.507812 91.625 126.222656 91.414062 126.011719 C 91.207031 125.785156 90.890625 125.679688 90.464844 125.679688 L 89.171875 125.679688 Z M 100.667969 131.1875 C 100.382812 131.539062 99.964844 131.820312 99.445312 132.011719 C 98.921875 132.199219 98.339844 132.292969 97.695312 132.292969 C 97.027344 132.292969 96.433594 132.136719 95.925781 131.84375 C 95.425781 131.554688 95.035156 131.125 94.753906 130.566406 C 94.484375 130.003906 94.355469 129.34375 94.332031 128.578125 L 94.332031 128.074219 C 94.332031 127.285156 94.464844 126.613281 94.71875 126.050781 C 94.988281 125.476562 95.367188 125.039062 95.851562 124.746094 C 96.359375 124.4375 96.929688 124.285156 97.585938 124.285156 C 98.507812 124.285156 99.226562 124.507812 99.738281 124.945312 C 100.265625 125.390625 100.570312 126.027344 100.667969 126.875 L 99.117188 126.875 C 99.046875 126.417969 98.894531 126.097656 98.648438 125.882812 C 98.394531 125.675781 98.066406 125.570312 97.644531 125.570312 C 97.097656 125.570312 96.675781 125.777344 96.390625 126.195312 C 96.117188 126.59375 95.976562 127.207031 95.957031 128.03125 L 95.957031 128.527344 C 95.957031 129.335938 96.109375 129.945312 96.417969 130.378906 C 96.730469 130.796875 97.191406 131.003906 97.78125 131.003906 C 98.382812 131.003906 98.8125 130.875 99.0625 130.621094 L 99.0625 129.261719 L 97.625 129.261719 L 97.625 128.089844 L 100.667969 128.089844 Z M 107.816406 124.394531 L 107.816406 129.515625 C 107.816406 130.375 107.554688 131.050781 107.019531 131.554688 C 106.492188 132.039062 105.765625 132.292969 104.84375 132.292969 C 103.941406 132.292969 103.226562 132.042969 102.6875 131.570312 C 102.167969 131.085938 101.90625 130.410156 101.882812 129.566406 L 101.882812 124.394531 L 103.472656 124.394531 L 103.472656 129.539062 C 103.472656 130.035156 103.59375 130.40625 103.839844 130.660156 C 104.082031 130.890625 104.414062 131.003906 104.84375 131.003906 C 105.746094 131.003906 106.203125 130.527344 106.210938 129.566406 L 106.210938 124.394531 Z M 111.214844 124.394531 L 113.199219 130.027344 L 115.191406 124.394531 L 117.277344 124.394531 L 117.277344 132.179688 L 115.691406 132.179688 L 115.691406 130.050781 L 115.832031 126.378906 L 113.753906 132.179688 L 112.65625 132.179688 L 110.578125 126.378906 L 110.71875 130.050781 L 110.71875 132.179688 L 109.136719 132.179688 L 109.136719 124.394531 Z M 123.332031 128.804688 L 120.265625 128.804688 L 120.265625 130.894531 L 123.863281 130.894531 L 123.863281 132.179688 L 118.679688 132.179688 L 118.679688 124.394531 L 123.863281 124.394531 L 123.863281 125.679688 L 120.265625 125.679688 L 120.265625 127.550781 L 123.332031 127.550781 Z M 131.109375 132.179688 L 129.515625 132.179688 L 126.394531 127.058594 L 126.394531 132.179688 L 124.808594 132.179688 L 124.808594 124.394531 L 126.394531 124.394531 L 129.515625 129.515625 L 129.515625 124.394531 L 131.109375 124.394531 Z M 138.328125 125.679688 L 135.957031 125.679688 L 135.957031 132.179688 L 134.363281 132.179688 L 134.363281 125.679688 L 132.03125 125.679688 L 132.03125 124.394531 L 138.328125 124.394531 Z M 145.519531 132.179688 L 143.988281 132.179688 L 143.988281 126.210938 L 142.164062 126.785156 L 142.164062 125.539062 L 145.355469 124.378906 L 145.519531 124.378906 Z M 145.519531 132.179688 "/>
<path style=" stroke:none;fill-rule:nonzero;fill:rgb(6.666667%,33.333334%,80.000001%);fill-opacity:1;" d="M 155.476562 127.828125 L 151.035156 127.828125 L 151.035156 126.960938 L 155.476562 126.960938 Z M 155.476562 130.050781 L 151.035156 130.050781 L 151.035156 129.183594 L 155.476562 129.183594 Z M 164.410156 128.855469 C 164.410156 130.015625 164.210938 130.886719 163.824219 131.449219 C 163.429688 132.007812 162.820312 132.292969 161.976562 132.292969 C 161.148438 132.292969 160.535156 132.011719 160.136719 131.464844 C 159.746094 130.910156 159.550781 130.082031 159.53125 128.988281 L 159.53125 127.660156 C 159.53125 126.527344 159.726562 125.679688 160.113281 125.128906 C 160.507812 124.566406 161.117188 124.285156 161.960938 124.285156 C 162.796875 124.285156 163.414062 124.558594 163.800781 125.097656 C 164.207031 125.625 164.410156 126.453125 164.410156 127.574219 Z M 163.417969 127.496094 C 163.417969 126.667969 163.304688 126.058594 163.070312 125.679688 C 162.84375 125.292969 162.472656 125.097656 161.960938 125.097656 C 161.464844 125.097656 161.097656 125.289062 160.867188 125.667969 C 160.632812 126.042969 160.511719 126.628906 160.5 127.417969 L 160.5 129 C 160.5 129.84375 160.621094 130.46875 160.867188 130.875 C 161.109375 131.277344 161.480469 131.476562 161.976562 131.476562 C 162.46875 131.476562 162.824219 131.292969 163.058594 130.910156 C 163.300781 130.53125 163.417969 129.9375 163.417969 129.128906 Z M 167.710938 128.507812 L 168.992188 126.398438 L 170.144531 126.398438 L 168.246094 129.261719 L 170.195312 132.179688 L 169.046875 132.179688 L 167.730469 130.011719 L 166.402344 132.179688 L 165.253906 132.179688 L 167.183594 129.261719 L 165.308594 126.398438 L 166.457031 126.398438 Z M 175.929688 128.855469 C 175.929688 130.015625 175.734375 130.886719 175.34375 131.449219 C 174.953125 132.007812 174.339844 132.292969 173.5 132.292969 C 172.671875 132.292969 172.054688 132.011719 171.660156 131.464844 C 171.269531 130.910156 171.0625 130.082031 171.050781 128.988281 L 171.050781 127.660156 C 171.050781 126.527344 171.242188 125.679688 171.632812 125.128906 C 172.023438 124.566406 172.636719 124.285156 173.484375 124.285156 C 174.324219 124.285156 174.9375 124.558594 175.328125 125.097656 C 175.730469 125.625 175.929688 126.453125 175.929688 127.574219 Z M 174.945312 127.496094 C 174.945312 126.667969 174.828125 126.058594 174.589844 125.679688 C 174.363281 125.292969 173.992188 125.097656 173.484375 125.097656 C 172.984375 125.097656 172.617188 125.289062 172.390625 125.667969 C 172.152344 126.042969 172.035156 126.628906 172.019531 127.417969 L 172.019531 129 C 172.019531 129.84375 172.140625 130.46875 172.390625 130.875 C 172.628906 131.277344 173.003906 131.476562 173.5 131.476562 C 173.988281 131.476562 174.34375 131.292969 174.578125 130.910156 C 174.824219 130.53125 174.945312 129.9375 174.945312 129.128906 Z M 182.175781 129.351562 C 182.175781 130.226562 181.972656 130.941406 181.550781 131.476562 C 181.152344 132.015625 180.609375 132.292969 179.925781 132.292969 C 179.210938 132.292969 178.648438 132.03125 178.253906 131.519531 L 178.199219 132.179688 L 177.300781 132.179688 L 177.300781 123.957031 L 178.285156 123.957031 L 178.285156 127.023438 C 178.683594 126.53125 179.21875 126.289062 179.910156 126.289062 C 180.613281 126.289062 181.171875 126.558594 181.570312 127.09375 C 181.976562 127.625 182.175781 128.347656 182.175781 129.261719 Z M 181.1875 129.238281 C 181.1875 128.566406 181.054688 128.046875 180.792969 127.683594 C 180.53125 127.3125 180.164062 127.132812 179.683594 127.132812 C 179.027344 127.132812 178.566406 127.433594 178.285156 128.03125 L 178.285156 130.546875 C 178.59375 131.140625 179.0625 131.449219 179.695312 131.449219 C 180.167969 131.449219 180.53125 131.261719 180.792969 130.894531 C 181.054688 130.527344 181.1875 129.980469 181.1875 129.238281 Z M 181.1875 129.238281 "/>
</g>
</svg>
